<?xml version="1.0" standalone="no"?>
<!DOCTYPE svg PUBLIC "-//W3C//DTD SVG 20010904//EN"
 "http://www.w3.org/TR/2001/REC-SVG-20010904/DTD/svg10.dtd">
<svg version="1.0"
    xmlns="http://www.w3.org/2000/svg" width="283.000000pt" height="86.000000pt" viewBox="0 0 283.000000 86.000000" preserveAspectRatio="xMidYMid meet">

    <g transform="translate(0.000000,86.000000) scale(0.100000,-0.100000)" fill="#3b82f6" stroke="none">
        <path d="M1363 740 c-56 -34 -63 -60 -63 -245 0 -230 17 -266 134 -273 74 -5
118 13 141 58 21 41 22 378 0 419 -30 58 -147 81 -212 41z m125 -239 c3 -183
-1 -201 -42 -201 -42 0 -46 15 -46 190 0 182 3 193 55 188 l30 -3 3 -174z"/>
        <path d="M110 738 c1 -29 90 -581 95 -586 2 -3 35 -1 72 4 l68 9 42 265 c23
146 44 278 47 293 6 28 5 28 -41 25 l-47 -3 -32 -212 c-18 -117 -34 -218 -36
-225 -2 -6 -12 44 -22 113 -9 68 -24 170 -33 227 l-16 102 -48 0 c-33 0 -49
-4 -49 -12z"/>
        <path d="M480 465 l0 -285 28 0 c15 0 37 3 50 6 l22 6 0 279 0 279 -50 0 -50
0 0 -285z"/>
        <path d="M640 471 l0 -280 28 4 c15 2 60 7 100 10 146 11 165 39 170 244 5
180 -1 223 -38 264 l-28 32 -116 3 -116 4 0 -281z m190 178 c7 -13 10 -77 8
-180 -3 -175 -4 -179 -65 -179 l-33 0 0 190 0 190 40 0 c29 0 42 -5 50 -21z"/>
        <path d="M990 485 l0 -265 128 0 c71 0 131 2 133 4 3 3 3 24 1 47 l-4 42 -79
-6 -79 -6 0 79 0 80 65 0 65 0 0 40 0 40 -65 0 -65 0 0 65 0 65 43 0 c23 0 58
3 79 6 32 6 37 10 40 40 l4 34 -133 0 -133 0 0 -265z"/>
        <path d="M1650 485 l0 -265 50 0 50 0 0 116 0 117 60 -6 60 -5 0 38 0 39 -60
7 -60 7 0 68 0 69 75 0 75 0 0 40 0 40 -125 0 -125 0 0 -265z"/>
        <path d="M1942 483 l3 -268 60 -6 c33 -4 90 -9 128 -12 l67 -5 0 43 0 44 -80
7 -80 7 0 228 0 229 -50 0 -50 0 2 -267z"/>
        <path d="M2240 471 l0 -278 31 -7 c75 -15 69 -39 69 279 l0 285 -50 0 -50 0 0
-279z"/>
        <path d="M2390 744 c0 -4 21 -65 47 -137 l47 -131 -49 -140 c-26 -78 -50 -147
-53 -153 -3 -9 10 -13 44 -13 l49 0 34 111 c20 63 38 104 42 97 4 -7 21 -60
38 -118 17 -57 35 -107 39 -111 4 -3 26 -9 50 -12 35 -4 42 -2 42 11 0 10 -22
84 -49 165 l-49 148 43 127 c23 70 46 135 50 145 7 16 3 18 -40 15 l-48 -3
-31 -92 c-17 -50 -33 -94 -36 -97 -4 -3 -21 40 -39 94 l-32 100 -50 0 c-27 0
-49 -3 -49 -6z"/>
    </g>
</svg>
